# xmcd CD database file
#
# Track frame offsets:
#	150
#	14766
#	32837
#	58857
#	81086
#	96025
#	118860
#	139912
#	157163
#	177199
#	198953
#	216245
#	238121
#	256457
#	276598
#	299585
#	323136
#	343944
#
# Disc length: 4790 seconds
#
# Revision: 0
# Processed by: cddbd v1.5.2PL0 Copyright (c) Steve Scherf et al.
# Submitted via: CDex 1.51
#
DISCID=2612b412
DTITLE=nine simone - introducing
DYEAR=2007
DGENRE=Jazz
TTITLE0=To love somebody
TTITLE1=Ain't got no/got life
TTITLE2=The house of the rising sun
TTITLE3=Porgy
TTITLE4=Saratoga
TTITLE5=To be young, gifted and black
TTITLE6=Mississippi goddamn
TTITLE7=Don't let me be misunderstood
TTITLE8=You must have another lover
TTITLE9=Gin house blues
TTITLE10=Sea line woman
TTITLE11=For women
TTITLE12=No opportunity neccessary, no experience needed
TTITLE13=After you've gone
TTITLE14=Nobody knows you when you're down and out
TTITLE15=Ne me quitte pas
TTITLE16=Just in time
TTITLE17=I want a little sugar in my bowl
EXTD=YEAR: 2007
EXTT0=
EXTT1=
EXTT2=
EXTT3=
EXTT4=
EXTT5=
EXTT6=
EXTT7=
EXTT8=
EXTT9=
EXTT10=
EXTT11=
EXTT12=
EXTT13=
EXTT14=
EXTT15=
EXTT16=
EXTT17=
PLAYORDER=
